<svg xmlns="http://www.w3.org/2000/svg" viewBox="0 0 419.35 87.71"><title>Logo</title><g data-name="Layer 2"><path d="M375.5 0a43.85 43.85 0 1 0 43.85 43.85A43.9 43.9 0 0 0 375.5 0zm0 64.63a20.77 20.77 0 1 1 20.77-20.77 20.8 20.8 0 0 1-20.77 20.77zM66 61.14A4.51 4.51 0 0 0 60.53 59c-3.88 1.6-5.25 2.94-10.16 4.57a20.77 20.77 0 1 1 0-39.46c4.91 1.63 6.28 3 10.16 4.57A4.51 4.51 0 0 0 66 26.57c2.77-4.8 5.76-10 6.52-11.32a4.44 4.44 0 0 0-1-5.43A44 44 0 0 0 45.34 0h-1.48a43.85 43.85 0 1 0 0 87.71h1.54a44 44 0 0 0 26.07-9.81 4.44 4.44 0 0 0 1-5.43c-.72-1.31-3.72-6.53-6.47-11.33zM127.85 1h-7.3a37.16 37.16 0 0 0-37.11 37.13v44.12a3 3 0 0 0 3 2.94h17.43a3 3 0 0 0 3-3v-44.1a13.76 13.76 0 0 1 13.68-13.69h7.28a1.91 1.91 0 0 0 1.89-1.91V2.92A1.9 1.9 0 0 0 127.85 1zm145.66 82.27V63.71a1.91 1.91 0 0 0-1.89-1.91h-7.28a13.76 13.76 0 0 1-13.74-13.73V3.97a3 3 0 0 0-3-3h-17.4a3 3 0 0 0-3 2.94v44.12a37.16 37.16 0 0 0 37.13 37.17h7.3a1.9 1.9 0 0 0 1.88-1.93zm52 0V63.71a1.91 1.91 0 0 0-1.89-1.91h-7.28a13.76 13.76 0 0 1-13.74-13.73V3.97a3 3 0 0 0-3-3h-17.37a3 3 0 0 0-3 2.94v44.12a37.16 37.16 0 0 0 37.14 37.17h7.3a1.9 1.9 0 0 0 1.88-1.93zM176 0c-24.15 0-41.5 19.67-41.5 43.85s17.35 43.86 41.5 43.86h1.58a44 44 0 0 0 26.07-9.78 4.44 4.44 0 0 0 1-5.43c-.76-1.31-3.75-6.53-6.52-11.32a4.51 4.51 0 0 0-5.38-2.18c-3.88 1.6-5.25 2.94-10.16 4.57a20.67 20.67 0 0 1-6.51 1c-8.16 0-14-5.5-16.32-12.36h52.48a4.37 4.37 0 0 0 4.23-3.81 53.07 53.07 0 0 0 .34-5.36C216.8 18.91 200.22 0 176 0zm-16.75 35.51c2-7.71 8-12.43 16.78-12.43s14 4.71 16 12.43z" fill="#fff" data-name="Layer 1"/></g></svg>